<svg width="1035" height="908" viewBox="0 0 1035 908" fill="none" xmlns="http://www.w3.org/2000/svg">
    <g id="bloons">
        <g id="balloon1" clip-path="url(#clip0_3_5)">
            <path id="Vector"
                d="M517.007 630.323C645.039 630.323 748.829 504.971 748.829 350.341C748.829 195.712 645.039 70.3594 517.007 70.3594C388.975 70.3594 285.185 195.712 285.185 350.341C285.185 504.971 388.975 630.323 517.007 630.323Z"
                fill="#FFDB58" />
            <path id="Vector_2"
                d="M285.178 350.335C285.178 290.704 300.627 235.435 326.936 190.022C319.021 190.371 311.063 191.214 303.093 192.619C188.127 212.888 114.098 338.074 137.753 472.223C161.408 606.373 273.785 698.69 388.752 678.417C426.488 671.764 459.812 653.806 486.721 627.94C373.001 610.021 285.178 492.567 285.178 350.335Z"
                fill="#FF00FF" />
            <path id="Vector_3"
                d="M730.907 192.617C722.937 191.213 714.981 190.367 707.065 190.021C733.373 235.433 748.823 290.702 748.823 350.333C748.823 492.566 661.001 610.02 547.281 627.939C574.188 653.804 607.512 671.762 645.249 678.415C760.217 698.689 872.595 606.371 896.248 472.221C919.903 338.074 845.875 212.888 730.907 192.617Z"
                fill="#7FFFD4" />
            <path id="Vector_4"
                d="M879.612 281.407C845.919 224.427 794.114 187.186 733.74 176.539C728.165 175.556 722.472 174.833 716.737 174.327C709.701 162.98 701.95 152.155 693.496 141.945C646.554 85.2501 583.871 54.0266 517.001 54.0266C450.13 54.0266 387.446 85.2501 340.504 141.945C332.05 152.155 324.299 162.981 317.263 174.327C311.529 174.833 305.835 175.556 300.258 176.539C239.886 187.185 188.081 224.427 154.386 281.407C121.177 337.569 109.559 406.343 121.675 475.056C133.792 543.771 168.23 604.423 218.647 645.842C259.941 679.764 307.918 697.561 356.643 697.559C368.272 697.559 379.954 696.543 391.586 694.493C393.621 694.134 395.641 693.725 397.661 693.301L503.457 846.767C503.462 846.773 503.466 846.78 503.47 846.787L503.557 846.916L503.562 846.913C506.509 851.177 511.424 853.975 516.998 853.975C522.573 853.975 527.49 851.177 530.434 846.911L530.438 846.916L530.526 846.787C530.531 846.781 530.534 846.775 530.538 846.767L636.334 693.301C638.353 693.723 640.374 694.133 642.409 694.492C654.046 696.543 665.72 697.558 677.354 697.558C726.076 697.558 774.061 679.759 815.35 645.84C865.766 604.423 900.206 543.771 912.323 475.054C924.441 406.343 912.823 337.569 879.612 281.407ZM239.374 620.612C194.975 584.139 164.595 530.432 153.83 469.387C143.066 408.341 153.245 347.485 182.492 298.024C209.783 251.874 250.647 220.966 298.177 210.264C279.03 252.835 268.853 300.668 268.853 350.332C268.853 428.91 294.3 502.916 340.505 558.72C371.502 596.157 409.365 622.478 450.765 636.039C430.993 649.3 409.007 658.265 385.918 662.336C335.083 671.301 283.038 656.482 239.374 620.612ZM500.676 785.205L430.504 683.412C452.826 674.543 473.668 661.662 492.159 645.151C494.988 645.484 497.826 645.778 500.676 645.996V785.205ZM517.001 613.992C398.176 613.992 301.504 495.715 301.504 350.335C301.504 204.955 398.176 86.6782 517.001 86.6782C635.826 86.6782 732.498 204.955 732.498 350.335C732.498 495.715 635.826 613.992 517.001 613.992ZM533.326 785.205V645.995C536.193 645.775 539.052 645.518 541.899 645.182C560.379 661.668 581.196 674.55 603.499 683.411L533.326 785.205ZM880.17 469.388C869.406 530.434 839.026 584.14 794.628 620.614C750.962 656.484 698.921 671.303 648.084 662.34C624.998 658.27 603.015 649.306 583.248 636.05C624.642 622.479 662.503 596.16 693.498 558.724C739.703 502.921 765.15 428.913 765.15 350.337C765.15 300.672 754.975 252.839 735.826 210.269C783.356 220.971 824.22 251.878 851.511 298.029C880.756 347.485 890.934 408.341 880.17 469.388ZM366.815 452.096C360.286 452.096 354.124 448.154 351.604 441.709C340.385 412.996 334.699 382.252 334.699 350.335C334.699 323.377 338.804 297.068 346.897 272.139C349.682 263.564 358.886 258.869 367.468 261.654C376.043 264.438 380.736 273.647 377.954 282.224C370.919 303.891 367.35 326.807 367.35 350.335C367.35 378.169 372.286 404.916 382.018 429.827C385.299 438.227 381.151 447.695 372.754 450.976C370.801 451.735 368.791 452.096 366.815 452.096ZM388.916 239.146C385.746 239.146 382.543 238.225 379.727 236.302C372.282 231.218 370.365 221.06 375.447 213.614L375.907 212.946C381.004 205.507 391.163 203.611 398.602 208.707C406.04 213.803 407.938 223.964 402.841 231.402L402.413 232.025C399.252 236.655 394.129 239.146 388.916 239.146Z"
                fill="black" />
        </g>
        <g id="balloon2" clip-path="url(#clip1_3_5)">
            <path id="Vector_5"
                d="M517.007 630.323C645.039 630.323 748.829 504.971 748.829 350.341C748.829 195.712 645.039 70.3594 517.007 70.3594C388.975 70.3594 285.185 195.712 285.185 350.341C285.185 504.971 388.975 630.323 517.007 630.323Z"
                fill="#FFDB58" />
            <path id="Vector_6"
                d="M285.178 350.335C285.178 290.704 300.627 235.435 326.936 190.022C319.021 190.371 311.063 191.214 303.093 192.619C188.127 212.888 114.098 338.074 137.753 472.223C161.408 606.373 273.785 698.69 388.752 678.417C426.488 671.764 459.812 653.806 486.721 627.94C373.001 610.021 285.178 492.567 285.178 350.335Z"
                fill="#FF00FF" />
            <path id="Vector_7"
                d="M730.907 192.617C722.937 191.213 714.981 190.367 707.065 190.021C733.373 235.433 748.823 290.702 748.823 350.333C748.823 492.566 661.001 610.02 547.281 627.939C574.188 653.804 607.512 671.762 645.249 678.415C760.217 698.689 872.595 606.371 896.248 472.221C919.903 338.074 845.875 212.888 730.907 192.617Z"
                fill="#7FFFD4" />
            <path id="Vector_8"
                d="M879.612 281.407C845.919 224.427 794.114 187.186 733.74 176.539C728.165 175.556 722.472 174.833 716.737 174.327C709.701 162.98 701.95 152.155 693.496 141.945C646.554 85.2501 583.871 54.0266 517.001 54.0266C450.13 54.0266 387.446 85.2501 340.504 141.945C332.05 152.155 324.299 162.981 317.263 174.327C311.529 174.833 305.835 175.556 300.258 176.539C239.886 187.185 188.081 224.427 154.386 281.407C121.177 337.569 109.559 406.343 121.675 475.056C133.792 543.771 168.23 604.423 218.647 645.842C259.941 679.764 307.918 697.561 356.643 697.559C368.272 697.559 379.954 696.543 391.586 694.493C393.621 694.134 395.641 693.725 397.661 693.301L503.457 846.767C503.462 846.773 503.466 846.78 503.47 846.787L503.557 846.916L503.562 846.913C506.509 851.177 511.424 853.975 516.998 853.975C522.573 853.975 527.49 851.177 530.434 846.911L530.438 846.916L530.526 846.787C530.531 846.781 530.534 846.775 530.538 846.767L636.334 693.301C638.353 693.723 640.374 694.133 642.409 694.492C654.046 696.543 665.72 697.558 677.354 697.558C726.076 697.558 774.061 679.759 815.35 645.84C865.766 604.423 900.206 543.771 912.323 475.054C924.441 406.343 912.823 337.569 879.612 281.407ZM239.374 620.612C194.975 584.139 164.595 530.432 153.83 469.387C143.066 408.341 153.245 347.485 182.492 298.024C209.783 251.874 250.647 220.966 298.177 210.264C279.03 252.835 268.853 300.668 268.853 350.332C268.853 428.91 294.3 502.916 340.505 558.72C371.502 596.157 409.365 622.478 450.765 636.039C430.993 649.3 409.007 658.265 385.918 662.336C335.083 671.301 283.038 656.482 239.374 620.612ZM500.676 785.205L430.504 683.412C452.826 674.543 473.668 661.662 492.159 645.151C494.988 645.484 497.826 645.778 500.676 645.996V785.205ZM517.001 613.992C398.176 613.992 301.504 495.715 301.504 350.335C301.504 204.955 398.176 86.6782 517.001 86.6782C635.826 86.6782 732.498 204.955 732.498 350.335C732.498 495.715 635.826 613.992 517.001 613.992ZM533.326 785.205V645.995C536.193 645.775 539.052 645.518 541.899 645.182C560.379 661.668 581.196 674.55 603.499 683.411L533.326 785.205ZM880.17 469.388C869.406 530.434 839.026 584.14 794.628 620.614C750.962 656.484 698.921 671.303 648.084 662.34C624.998 658.27 603.015 649.306 583.248 636.05C624.642 622.479 662.503 596.16 693.498 558.724C739.703 502.921 765.15 428.913 765.15 350.337C765.15 300.672 754.975 252.839 735.826 210.269C783.356 220.971 824.22 251.878 851.511 298.029C880.756 347.485 890.934 408.341 880.17 469.388ZM366.815 452.096C360.286 452.096 354.124 448.154 351.604 441.709C340.385 412.996 334.699 382.252 334.699 350.335C334.699 323.377 338.804 297.068 346.897 272.139C349.682 263.564 358.886 258.869 367.468 261.654C376.043 264.438 380.736 273.647 377.954 282.224C370.919 303.891 367.35 326.807 367.35 350.335C367.35 378.169 372.286 404.916 382.018 429.827C385.299 438.227 381.151 447.695 372.754 450.976C370.801 451.735 368.791 452.096 366.815 452.096ZM388.916 239.146C385.746 239.146 382.543 238.225 379.727 236.302C372.282 231.218 370.365 221.06 375.447 213.614L375.907 212.946C381.004 205.507 391.163 203.611 398.602 208.707C406.04 213.803 407.938 223.964 402.841 231.402L402.413 232.025C399.252 236.655 394.129 239.146 388.916 239.146Z"
                fill="black" />
        </g>
        <g id="balloon3" clip-path="url(#clip2_3_5)">
            <path id="Vector_9"
                d="M517.007 630.323C645.039 630.323 748.829 504.971 748.829 350.341C748.829 195.712 645.039 70.3595 517.007 70.3595C388.975 70.3595 285.185 195.712 285.185 350.341C285.185 504.971 388.975 630.323 517.007 630.323Z"
                fill="#FFDB58" />
            <path id="Vector_10"
                d="M285.179 350.335C285.179 290.704 300.627 235.435 326.936 190.022C319.021 190.371 311.063 191.214 303.093 192.619C188.127 212.888 114.099 338.074 137.753 472.223C161.408 606.373 273.785 698.691 388.752 678.417C426.488 671.764 459.812 653.806 486.721 627.94C373.001 610.022 285.179 492.567 285.179 350.335Z"
                fill="#FF00FF" />
            <path id="Vector_11"
                d="M730.908 192.618C722.937 191.213 714.981 190.368 707.065 190.021C733.373 235.433 748.823 290.702 748.823 350.334C748.823 492.567 661.001 610.02 547.281 627.939C574.189 653.804 607.512 671.762 645.25 678.415C760.217 698.689 872.595 606.372 896.249 472.221C919.903 338.074 845.875 212.888 730.908 192.618Z"
                fill="#7FFFD4" />
            <path id="Vector_12"
                d="M879.613 281.407C845.919 224.427 794.114 187.186 733.74 176.539C728.165 175.557 722.472 174.833 716.737 174.327C709.701 162.98 701.95 152.155 693.497 141.946C646.554 85.2502 583.871 54.0267 517.001 54.0267C450.13 54.0267 387.446 85.2502 340.504 141.946C332.051 152.155 324.299 162.982 317.263 174.327C311.529 174.833 305.835 175.557 300.258 176.539C239.886 187.185 188.082 224.427 154.386 281.407C121.177 337.569 109.559 406.343 121.675 475.056C133.792 543.771 168.23 604.423 218.647 645.842C259.941 679.764 307.918 697.561 356.643 697.559C368.273 697.559 379.954 696.544 391.587 694.494C393.621 694.134 395.641 693.725 397.662 693.301L503.457 846.767C503.462 846.774 503.467 846.78 503.47 846.788L503.557 846.916L503.562 846.913C506.509 851.177 511.424 853.975 516.998 853.975C522.573 853.975 527.49 851.177 530.434 846.911L530.438 846.916L530.526 846.788C530.531 846.781 530.534 846.775 530.538 846.767L636.334 693.301C638.353 693.723 640.375 694.133 642.409 694.492C654.046 696.544 665.72 697.558 677.354 697.558C726.076 697.558 774.061 679.759 815.35 645.84C865.766 604.423 900.206 543.771 912.324 475.054C924.441 406.343 912.824 337.569 879.613 281.407ZM239.374 620.612C194.975 584.139 164.596 530.432 153.83 469.387C143.066 408.341 153.246 347.485 182.492 298.024C209.783 251.874 250.647 220.966 298.177 210.264C279.03 252.835 268.854 300.668 268.854 350.332C268.854 428.91 294.3 502.917 340.505 558.72C371.502 596.157 409.365 622.478 450.765 636.039C430.993 649.3 409.007 658.265 385.918 662.336C335.083 671.301 283.038 656.483 239.374 620.612ZM500.676 785.205L430.504 683.412C452.826 674.544 473.668 661.662 492.159 645.151C494.988 645.484 497.826 645.778 500.676 645.997V785.205ZM517.001 613.992C398.176 613.992 301.504 495.715 301.504 350.335C301.504 204.955 398.176 86.6783 517.001 86.6783C635.826 86.6783 732.498 204.955 732.498 350.335C732.498 495.715 635.826 613.992 517.001 613.992ZM533.326 785.205V645.995C536.193 645.775 539.053 645.518 541.899 645.182C560.379 661.668 581.196 674.55 603.5 683.411L533.326 785.205ZM880.17 469.388C869.406 530.434 839.027 584.14 794.628 620.614C750.962 656.484 698.922 671.303 648.084 662.34C624.998 658.27 603.015 649.306 583.248 636.05C624.642 622.479 662.503 596.161 693.498 558.725C739.703 502.921 765.15 428.913 765.15 350.337C765.15 300.672 754.975 252.84 735.826 210.269C783.356 220.971 824.22 251.879 851.511 298.029C880.756 347.485 890.934 408.341 880.17 469.388ZM366.815 452.096C360.287 452.096 354.124 448.154 351.604 441.709C340.385 412.996 334.699 382.252 334.699 350.335C334.699 323.377 338.804 297.068 346.897 272.14C349.682 263.565 358.887 258.869 367.468 261.654C376.043 264.438 380.737 273.647 377.954 282.224C370.919 303.891 367.351 326.807 367.351 350.335C367.351 378.17 372.287 404.916 382.018 429.827C385.299 438.227 381.151 447.695 372.754 450.976C370.801 451.735 368.791 452.096 366.815 452.096ZM388.916 239.146C385.746 239.146 382.543 238.225 379.727 236.302C372.282 231.218 370.365 221.06 375.448 213.614L375.907 212.946C381.004 205.507 391.163 203.611 398.602 208.707C406.04 213.804 407.938 223.965 402.841 231.402L402.413 232.025C399.252 236.655 394.129 239.146 388.916 239.146Z"
                fill="black" />
        </g>
    </g>
    <defs>
        <clipPath id="clip0_3_5">
            <rect width="800" height="800" fill="white" transform="translate(117 54)" />
        </clipPath>
        <clipPath id="clip1_3_5">
            <rect width="800" height="800" fill="white" transform="translate(117 54)" />
        </clipPath>
        <clipPath id="clip2_3_5">
            <rect width="800" height="800" fill="white" transform="translate(117 54.0001)" />
        </clipPath>
    </defs>
</svg>