<svg xmlns="http://www.w3.org/2000/svg" xmlns:xlink="http://www.w3.org/1999/xlink" width="500" zoomAndPan="magnify" viewBox="0 0 375 374.999991" height="500" preserveAspectRatio="xMidYMid meet" version="1.0"><defs><g/><clipPath id="677dba63e1"><path d="M 37.5 126.257812 L 326.707031 126.257812 L 326.707031 175.421875 L 37.5 175.421875 Z M 37.5 126.257812 " clip-rule="nonzero"/></clipPath><clipPath id="83020525a7"><path d="M 54.75 126.257812 L 309.289062 126.257812 C 313.863281 126.257812 318.25 128.078125 321.484375 131.3125 C 324.722656 134.546875 326.539062 138.933594 326.539062 143.507812 L 326.539062 158.171875 C 326.539062 162.746094 324.722656 167.132812 321.484375 170.367188 C 318.25 173.605469 313.863281 175.421875 309.289062 175.421875 L 54.75 175.421875 C 50.175781 175.421875 45.789062 173.605469 42.550781 170.367188 C 39.316406 167.132812 37.5 162.746094 37.5 158.171875 L 37.5 143.507812 C 37.5 138.933594 39.316406 134.546875 42.550781 131.3125 C 45.789062 128.078125 50.175781 126.257812 54.75 126.257812 Z M 54.75 126.257812 " clip-rule="nonzero"/></clipPath></defs><path fill="#ba9372" d="M 325.136719 122.109375 C 273.457031 90.46875 193.300781 44.0625 182.226562 44.0625 C 171.152344 44.0625 94.160156 90.996094 45.117188 122.109375 L 42.480469 117.363281 C 55.136719 109.453125 166.40625 38.789062 182.226562 38.789062 C 198.046875 38.789062 314.589844 109.453125 327.773438 117.890625 L 325.136719 122.109375 " fill-opacity="1" fill-rule="nonzero"/><path fill="#93a2aa" d="M 345.703125 318.28125 C 345.703125 326.71875 339.375 334.101562 331.464844 334.101562 L 54.609375 334.101562 C 46.699219 334.101562 40.371094 327.246094 40.371094 318.28125 L 40.371094 130.019531 C 40.371094 121.582031 46.699219 114.199219 54.609375 114.199219 L 331.464844 114.199219 C 339.375 114.199219 345.703125 121.054688 345.703125 130.019531 L 345.703125 318.28125 " fill-opacity="1" fill-rule="nonzero"/><path fill="#ed4c5c" d="M 335.15625 130.019531 C 335.15625 121.582031 328.828125 114.199219 320.917969 114.199219 L 43.535156 114.199219 C 35.625 114.199219 29.296875 121.054688 29.296875 130.019531 L 29.296875 180.117188 L 335.15625 180.117188 Z M 335.15625 130.019531 " fill-opacity="1" fill-rule="nonzero"/><path fill="#d9e3e8" d="M 29.296875 180.117188 L 29.296875 318.28125 C 29.296875 326.71875 35.625 334.101562 43.535156 334.101562 L 320.390625 334.101562 C 328.300781 334.101562 334.628906 327.246094 334.628906 318.28125 L 334.628906 180.117188 Z M 29.296875 180.117188 " fill-opacity="1" fill-rule="nonzero"/><path fill="#93a2aa" d="M 42.480469 192.773438 L 74.121094 192.773438 L 74.121094 204.375 L 42.480469 204.375 Z M 42.480469 192.773438 " fill-opacity="1" fill-rule="nonzero"/><path fill="#93a2aa" d="M 83.613281 192.773438 L 115.253906 192.773438 L 115.253906 204.375 L 83.613281 204.375 Z M 83.613281 192.773438 " fill-opacity="1" fill-rule="nonzero"/><path fill="#93a2aa" d="M 125.273438 192.773438 L 156.914062 192.773438 L 156.914062 204.375 L 125.273438 204.375 Z M 125.273438 192.773438 " fill-opacity="1" fill-rule="nonzero"/><path fill="#93a2aa" d="M 166.40625 192.773438 L 198.046875 192.773438 L 198.046875 204.375 L 166.40625 204.375 Z M 166.40625 192.773438 " fill-opacity="1" fill-rule="nonzero"/><path fill="#93a2aa" d="M 207.539062 192.773438 L 239.179688 192.773438 L 239.179688 204.375 L 207.539062 204.375 Z M 207.539062 192.773438 " fill-opacity="1" fill-rule="nonzero"/><path fill="#93a2aa" d="M 249.199219 192.773438 L 280.839844 192.773438 L 280.839844 204.375 L 249.199219 204.375 Z M 249.199219 192.773438 " fill-opacity="1" fill-rule="nonzero"/><path fill="#93a2aa" d="M 290.332031 192.773438 L 321.972656 192.773438 L 321.972656 204.375 L 290.332031 204.375 Z M 290.332031 192.773438 " fill-opacity="1" fill-rule="nonzero"/><path fill="#93a2aa" d="M 166.40625 215.976562 L 198.046875 215.976562 L 198.046875 227.578125 L 166.40625 227.578125 Z M 166.40625 215.976562 " fill-opacity="1" fill-rule="nonzero"/><path fill="#93a2aa" d="M 207.539062 215.976562 L 239.179688 215.976562 L 239.179688 227.578125 L 207.539062 227.578125 Z M 207.539062 215.976562 " fill-opacity="1" fill-rule="nonzero"/><path fill="#93a2aa" d="M 249.199219 215.976562 L 280.839844 215.976562 L 280.839844 227.578125 L 249.199219 227.578125 Z M 249.199219 215.976562 " fill-opacity="1" fill-rule="nonzero"/><path fill="#93a2aa" d="M 290.332031 215.976562 L 321.972656 215.976562 L 321.972656 227.578125 L 290.332031 227.578125 Z M 290.332031 215.976562 " fill-opacity="1" fill-rule="nonzero"/><path fill="#93a2aa" d="M 42.480469 239.179688 L 74.121094 239.179688 L 74.121094 250.78125 L 42.480469 250.78125 Z M 42.480469 239.179688 " fill-opacity="1" fill-rule="nonzero"/><path fill="#93a2aa" d="M 83.613281 239.179688 L 115.253906 239.179688 L 115.253906 250.78125 L 83.613281 250.78125 Z M 83.613281 239.179688 " fill-opacity="1" fill-rule="nonzero"/><path fill="#93a2aa" d="M 125.273438 239.179688 L 156.914062 239.179688 L 156.914062 250.78125 L 125.273438 250.78125 Z M 125.273438 239.179688 " fill-opacity="1" fill-rule="nonzero"/><path fill="#93a2aa" d="M 166.40625 239.179688 L 198.046875 239.179688 L 198.046875 250.78125 L 166.40625 250.78125 Z M 166.40625 239.179688 " fill-opacity="1" fill-rule="nonzero"/><path fill="#93a2aa" d="M 207.539062 239.179688 L 239.179688 239.179688 L 239.179688 250.78125 L 207.539062 250.78125 Z M 207.539062 239.179688 " fill-opacity="1" fill-rule="nonzero"/><path fill="#93a2aa" d="M 249.199219 239.179688 L 280.839844 239.179688 L 280.839844 250.78125 L 249.199219 250.78125 Z M 249.199219 239.179688 " fill-opacity="1" fill-rule="nonzero"/><path fill="#93a2aa" d="M 290.332031 239.179688 L 321.972656 239.179688 L 321.972656 250.78125 L 290.332031 250.78125 Z M 290.332031 239.179688 " fill-opacity="1" fill-rule="nonzero"/><path fill="#93a2aa" d="M 42.480469 262.910156 L 74.121094 262.910156 L 74.121094 274.511719 L 42.480469 274.511719 Z M 42.480469 262.910156 " fill-opacity="1" fill-rule="nonzero"/><path fill="#93a2aa" d="M 83.613281 262.910156 L 115.253906 262.910156 L 115.253906 274.511719 L 83.613281 274.511719 Z M 83.613281 262.910156 " fill-opacity="1" fill-rule="nonzero"/><path fill="#93a2aa" d="M 125.273438 262.910156 L 156.914062 262.910156 L 156.914062 274.511719 L 125.273438 274.511719 Z M 125.273438 262.910156 " fill-opacity="1" fill-rule="nonzero"/><path fill="#93a2aa" d="M 166.40625 262.910156 L 198.046875 262.910156 L 198.046875 274.511719 L 166.40625 274.511719 Z M 166.40625 262.910156 " fill-opacity="1" fill-rule="nonzero"/><path fill="#93a2aa" d="M 207.539062 262.910156 L 239.179688 262.910156 L 239.179688 274.511719 L 207.539062 274.511719 Z M 207.539062 262.910156 " fill-opacity="1" fill-rule="nonzero"/><path fill="#93a2aa" d="M 249.199219 262.910156 L 280.839844 262.910156 L 280.839844 274.511719 L 249.199219 274.511719 Z M 249.199219 262.910156 " fill-opacity="1" fill-rule="nonzero"/><path fill="#93a2aa" d="M 290.332031 262.910156 L 321.972656 262.910156 L 321.972656 274.511719 L 290.332031 274.511719 Z M 290.332031 262.910156 " fill-opacity="1" fill-rule="nonzero"/><path fill="#93a2aa" d="M 42.480469 286.113281 L 74.121094 286.113281 L 74.121094 297.714844 L 42.480469 297.714844 Z M 42.480469 286.113281 " fill-opacity="1" fill-rule="nonzero"/><path fill="#93a2aa" d="M 83.613281 286.113281 L 115.253906 286.113281 L 115.253906 297.714844 L 83.613281 297.714844 Z M 83.613281 286.113281 " fill-opacity="1" fill-rule="nonzero"/><path fill="#93a2aa" d="M 125.273438 286.113281 L 156.914062 286.113281 L 156.914062 297.714844 L 125.273438 297.714844 Z M 125.273438 286.113281 " fill-opacity="1" fill-rule="nonzero"/><path fill="#93a2aa" d="M 166.40625 286.113281 L 198.046875 286.113281 L 198.046875 297.714844 L 166.40625 297.714844 Z M 166.40625 286.113281 " fill-opacity="1" fill-rule="nonzero"/><path fill="#93a2aa" d="M 207.539062 286.113281 L 239.179688 286.113281 L 239.179688 297.714844 L 207.539062 297.714844 Z M 207.539062 286.113281 " fill-opacity="1" fill-rule="nonzero"/><path fill="#93a2aa" d="M 249.199219 286.113281 L 280.839844 286.113281 L 280.839844 297.714844 L 249.199219 297.714844 Z M 249.199219 286.113281 " fill-opacity="1" fill-rule="nonzero"/><path fill="#93a2aa" d="M 290.332031 286.113281 L 321.972656 286.113281 L 321.972656 297.714844 L 290.332031 297.714844 Z M 290.332031 286.113281 " fill-opacity="1" fill-rule="nonzero"/><path fill="#93a2aa" d="M 42.480469 309.316406 L 74.121094 309.316406 L 74.121094 320.917969 L 42.480469 320.917969 Z M 42.480469 309.316406 " fill-opacity="1" fill-rule="nonzero"/><path fill="#93a2aa" d="M 83.613281 309.316406 L 115.253906 309.316406 L 115.253906 320.917969 L 83.613281 320.917969 Z M 83.613281 309.316406 " fill-opacity="1" fill-rule="nonzero"/><path fill="#93a2aa" d="M 125.273438 309.316406 L 156.914062 309.316406 L 156.914062 320.917969 L 125.273438 320.917969 Z M 125.273438 309.316406 " fill-opacity="1" fill-rule="nonzero"/><path fill="#93a2aa" d="M 166.40625 309.316406 L 198.046875 309.316406 L 198.046875 320.917969 L 166.40625 320.917969 Z M 166.40625 309.316406 " fill-opacity="1" fill-rule="nonzero"/><path fill="#93a2aa" d="M 207.539062 309.316406 L 239.179688 309.316406 L 239.179688 320.917969 L 207.539062 320.917969 Z M 207.539062 309.316406 " fill-opacity="1" fill-rule="nonzero"/><path fill="#93a2aa" d="M 249.199219 309.316406 L 280.839844 309.316406 L 280.839844 320.917969 L 249.199219 320.917969 Z M 249.199219 309.316406 " fill-opacity="1" fill-rule="nonzero"/><path fill="#333333" d="M 192.773438 51.445312 C 192.773438 52.101562 192.710938 52.753906 192.589844 53.398438 C 192.46875 54.046875 192.289062 54.671875 192.050781 55.28125 C 191.8125 55.886719 191.519531 56.464844 191.171875 57.011719 C 190.828125 57.558594 190.433594 58.066406 189.992188 58.53125 C 189.550781 58.996094 189.074219 59.410156 188.554688 59.777344 C 188.035156 60.140625 187.488281 60.449219 186.914062 60.703125 C 186.339844 60.953125 185.746094 61.144531 185.132812 61.273438 C 184.523438 61.402344 183.90625 61.464844 183.28125 61.464844 C 182.65625 61.464844 182.039062 61.402344 181.429688 61.273438 C 180.816406 61.144531 180.222656 60.953125 179.648438 60.703125 C 179.074219 60.449219 178.527344 60.140625 178.007812 59.777344 C 177.488281 59.410156 177.011719 58.996094 176.570312 58.53125 C 176.128906 58.066406 175.734375 57.558594 175.390625 57.011719 C 175.042969 56.464844 174.75 55.886719 174.511719 55.28125 C 174.273438 54.671875 174.09375 54.046875 173.972656 53.398438 C 173.851562 52.753906 173.789062 52.101562 173.789062 51.445312 C 173.789062 50.789062 173.851562 50.136719 173.972656 49.492188 C 174.09375 48.84375 174.273438 48.21875 174.511719 47.609375 C 174.75 47.003906 175.042969 46.425781 175.390625 45.878906 C 175.734375 45.332031 176.128906 44.824219 176.570312 44.359375 C 177.011719 43.894531 177.488281 43.480469 178.007812 43.113281 C 178.527344 42.75 179.074219 42.441406 179.648438 42.1875 C 180.222656 41.9375 180.816406 41.746094 181.429688 41.617188 C 182.039062 41.488281 182.65625 41.425781 183.28125 41.425781 C 183.90625 41.425781 184.523438 41.488281 185.132812 41.617188 C 185.746094 41.746094 186.339844 41.9375 186.914062 42.1875 C 187.488281 42.441406 188.035156 42.75 188.554688 43.113281 C 189.074219 43.480469 189.550781 43.894531 189.992188 44.359375 C 190.433594 44.824219 190.828125 45.332031 191.171875 45.878906 C 191.519531 46.425781 191.8125 47.003906 192.050781 47.609375 C 192.289062 48.21875 192.46875 48.84375 192.589844 49.492188 C 192.710938 50.136719 192.773438 50.789062 192.773438 51.445312 Z M 192.773438 51.445312 " fill-opacity="1" fill-rule="nonzero"/><path fill="#93a2aa" d="M 191.71875 51.445312 C 191.71875 52.101562 191.65625 52.753906 191.535156 53.398438 C 191.414062 54.046875 191.234375 54.671875 190.996094 55.28125 C 190.757812 55.886719 190.464844 56.464844 190.117188 57.011719 C 189.773438 57.558594 189.378906 58.066406 188.9375 58.53125 C 188.496094 58.996094 188.019531 59.410156 187.5 59.777344 C 186.980469 60.140625 186.433594 60.449219 185.859375 60.703125 C 185.285156 60.953125 184.691406 61.144531 184.078125 61.273438 C 183.46875 61.402344 182.851562 61.464844 182.226562 61.464844 C 181.601562 61.464844 180.984375 61.402344 180.375 61.273438 C 179.761719 61.144531 179.167969 60.953125 178.59375 60.703125 C 178.019531 60.449219 177.472656 60.140625 176.953125 59.777344 C 176.433594 59.410156 175.957031 58.996094 175.515625 58.53125 C 175.074219 58.066406 174.679688 57.558594 174.335938 57.011719 C 173.988281 56.464844 173.695312 55.886719 173.457031 55.28125 C 173.21875 54.671875 173.039062 54.046875 172.917969 53.398438 C 172.796875 52.753906 172.734375 52.101562 172.734375 51.445312 C 172.734375 50.789062 172.796875 50.136719 172.917969 49.492188 C 173.039062 48.84375 173.21875 48.21875 173.457031 47.609375 C 173.695312 47.003906 173.988281 46.425781 174.335938 45.878906 C 174.679688 45.332031 175.074219 44.824219 175.515625 44.359375 C 175.957031 43.894531 176.433594 43.480469 176.953125 43.113281 C 177.472656 42.75 178.019531 42.441406 178.59375 42.1875 C 179.167969 41.9375 179.761719 41.746094 180.375 41.617188 C 180.984375 41.488281 181.601562 41.425781 182.226562 41.425781 C 182.851562 41.425781 183.46875 41.488281 184.078125 41.617188 C 184.691406 41.746094 185.285156 41.9375 185.859375 42.1875 C 186.433594 42.441406 186.980469 42.75 187.5 43.113281 C 188.019531 43.480469 188.496094 43.894531 188.9375 44.359375 C 189.378906 44.824219 189.773438 45.332031 190.117188 45.878906 C 190.464844 46.425781 190.757812 47.003906 190.996094 47.609375 C 191.234375 48.21875 191.414062 48.84375 191.535156 49.492188 C 191.65625 50.136719 191.71875 50.789062 191.71875 51.445312 Z M 191.71875 51.445312 " fill-opacity="1" fill-rule="nonzero"/><path fill="#ffffff" d="M 121.582031 153.222656 L 121.582031 154.277344 C 121.582031 157.441406 122.109375 159.550781 122.636719 161.132812 C 123.164062 162.1875 124.21875 163.242188 126.328125 163.242188 C 128.4375 163.242188 129.492188 162.714844 130.019531 161.132812 C 130.546875 160.078125 130.546875 159.023438 130.546875 156.914062 L 130.546875 127.910156 L 138.984375 127.910156 L 138.984375 156.386719 C 138.984375 160.078125 138.457031 162.714844 137.402344 164.824219 C 135.292969 168.515625 132.128906 170.097656 126.855469 170.097656 C 121.582031 170.097656 118.417969 168.515625 116.308594 165.878906 C 114.726562 163.242188 113.671875 159.023438 113.671875 154.277344 L 113.671875 153.222656 L 121.582031 153.222656 " fill-opacity="1" fill-rule="nonzero"/><path fill="#ffffff" d="M 147.949219 127.910156 L 156.386719 127.910156 L 156.386719 153.222656 C 156.386719 155.859375 156.914062 157.96875 157.441406 159.550781 C 158.496094 161.660156 160.605469 163.242188 164.296875 163.242188 C 167.460938 163.242188 170.097656 162.1875 171.152344 159.550781 C 171.679688 157.96875 171.679688 155.859375 171.679688 153.222656 L 171.679688 127.910156 L 180.117188 127.910156 L 180.117188 153.222656 C 180.117188 157.441406 179.589844 161.132812 178.007812 163.242188 C 175.371094 167.460938 170.625 170.097656 163.769531 170.097656 C 156.914062 170.097656 152.167969 167.988281 149.53125 163.242188 C 147.949219 160.605469 147.421875 157.441406 147.421875 153.222656 C 147.949219 153.222656 147.949219 127.910156 147.949219 127.910156 " fill-opacity="1" fill-rule="nonzero"/><path fill="#ffffff" d="M 188.554688 127.910156 L 196.992188 127.910156 L 196.992188 161.660156 L 217.03125 161.660156 L 217.03125 169.042969 L 188.554688 169.042969 L 188.554688 127.910156 " fill-opacity="1" fill-rule="nonzero"/><path fill="#ffffff" d="M 241.289062 127.910156 L 250.78125 127.910156 L 237.070312 153.75 L 237.070312 169.042969 L 228.632812 169.042969 L 228.632812 153.75 L 214.394531 127.910156 L 224.414062 127.910156 L 232.851562 145.839844 L 241.289062 127.910156 " fill-opacity="1" fill-rule="nonzero"/><g clip-path="url(#677dba63e1)"><g clip-path="url(#83020525a7)"><path fill="#ed4e5e" d="M 37.5 126.257812 L 326.515625 126.257812 L 326.515625 175.421875 L 37.5 175.421875 Z M 37.5 126.257812 " fill-opacity="1" fill-rule="nonzero"/></g></g><g fill="#ffffff" fill-opacity="1"><g transform="translate(42.092236, 162.328399)"><g><path d="M 13.796875 -28.578125 C 17.160156 -28.578125 19.78125 -27.921875 21.65625 -26.609375 C 23.539062 -25.296875 24.484375 -23.335938 24.484375 -20.734375 C 24.484375 -19.421875 24.132812 -18.242188 23.4375 -17.203125 C 22.738281 -16.160156 21.722656 -15.378906 20.390625 -14.859375 C 22.097656 -14.492188 23.378906 -13.707031 24.234375 -12.5 C 25.097656 -11.289062 25.53125 -9.894531 25.53125 -8.3125 C 25.53125 -5.582031 24.625 -3.515625 22.8125 -2.109375 C 21.007812 -0.703125 18.457031 0 15.15625 0 L 1.09375 0 L 1.09375 -3.4375 L 4.140625 -4.015625 L 4.140625 -24.53125 L 1.09375 -25.125 L 1.09375 -28.578125 Z M 9.875 -12.640625 L 9.875 -4.390625 L 15.15625 -4.390625 C 16.664062 -4.390625 17.816406 -4.71875 18.609375 -5.375 C 19.410156 -6.039062 19.8125 -7.019531 19.8125 -8.3125 C 19.8125 -9.71875 19.472656 -10.789062 18.796875 -11.53125 C 18.117188 -12.269531 17.046875 -12.640625 15.578125 -12.640625 Z M 9.875 -16.59375 L 13.984375 -16.59375 C 15.515625 -16.59375 16.691406 -16.90625 17.515625 -17.53125 C 18.347656 -18.164062 18.765625 -19.085938 18.765625 -20.296875 C 18.765625 -21.609375 18.347656 -22.578125 17.515625 -23.203125 C 16.679688 -23.835938 15.441406 -24.15625 13.796875 -24.15625 L 9.875 -24.15625 Z M 9.875 -16.59375 "/></g></g></g><g fill="#ffffff" fill-opacity="1"><g transform="translate(68.655664, 162.328399)"><g><path d="M 27.21875 -14.0625 C 27.21875 -9.882812 26.019531 -6.425781 23.625 -3.6875 C 21.226562 -0.957031 18.09375 0.40625 14.21875 0.40625 C 10.363281 0.40625 7.25 -0.957031 4.875 -3.6875 C 2.5 -6.425781 1.3125 -9.882812 1.3125 -14.0625 L 1.3125 -14.5 C 1.3125 -18.65625 2.492188 -22.109375 4.859375 -24.859375 C 7.234375 -27.609375 10.347656 -28.984375 14.203125 -28.984375 C 18.078125 -28.984375 21.210938 -27.609375 23.609375 -24.859375 C 26.015625 -22.109375 27.21875 -18.65625 27.21875 -14.5 Z M 21.5 -14.546875 C 21.5 -17.492188 20.882812 -19.890625 19.65625 -21.734375 C 18.425781 -23.585938 16.609375 -24.515625 14.203125 -24.515625 C 11.796875 -24.515625 10 -23.597656 8.8125 -21.765625 C 7.632812 -19.929688 7.046875 -17.523438 7.046875 -14.546875 L 7.046875 -14.0625 C 7.046875 -11.0625 7.644531 -8.640625 8.84375 -6.796875 C 10.039062 -4.960938 11.832031 -4.046875 14.21875 -4.046875 C 16.644531 -4.046875 18.460938 -4.960938 19.671875 -6.796875 C 20.890625 -8.640625 21.5 -11.0625 21.5 -14.0625 Z M 21.5 -14.546875 "/></g></g></g><g fill="#ffffff" fill-opacity="1"><g transform="translate(97.06323, 162.328399)"><g><path d="M 27.21875 -14.0625 C 27.21875 -9.882812 26.019531 -6.425781 23.625 -3.6875 C 21.226562 -0.957031 18.09375 0.40625 14.21875 0.40625 C 10.363281 0.40625 7.25 -0.957031 4.875 -3.6875 C 2.5 -6.425781 1.3125 -9.882812 1.3125 -14.0625 L 1.3125 -14.5 C 1.3125 -18.65625 2.492188 -22.109375 4.859375 -24.859375 C 7.234375 -27.609375 10.347656 -28.984375 14.203125 -28.984375 C 18.078125 -28.984375 21.210938 -27.609375 23.609375 -24.859375 C 26.015625 -22.109375 27.21875 -18.65625 27.21875 -14.5 Z M 21.5 -14.546875 C 21.5 -17.492188 20.882812 -19.890625 19.65625 -21.734375 C 18.425781 -23.585938 16.609375 -24.515625 14.203125 -24.515625 C 11.796875 -24.515625 10 -23.597656 8.8125 -21.765625 C 7.632812 -19.929688 7.046875 -17.523438 7.046875 -14.546875 L 7.046875 -14.0625 C 7.046875 -11.0625 7.644531 -8.640625 8.84375 -6.796875 C 10.039062 -4.960938 11.832031 -4.046875 14.21875 -4.046875 C 16.644531 -4.046875 18.460938 -4.960938 19.671875 -6.796875 C 20.890625 -8.640625 21.5 -11.0625 21.5 -14.0625 Z M 21.5 -14.546875 "/></g></g></g><g fill="#ffffff" fill-opacity="1"><g transform="translate(125.470796, 162.328399)"><g><path d="M 1.09375 -3.4375 L 4.140625 -4.015625 L 4.140625 -24.53125 L 1.09375 -25.125 L 1.09375 -28.578125 L 12.78125 -28.578125 L 12.78125 -25.125 L 9.875 -24.53125 L 9.875 -16.890625 L 12.359375 -16.890625 L 17.859375 -24.875 L 16.171875 -25.125 L 16.171875 -28.578125 L 27.484375 -28.578125 L 27.484375 -25.125 L 24.390625 -24.59375 L 17.359375 -15.203125 L 25.25 -3.921875 L 28.125 -3.4375 L 28.125 0 L 16.796875 0 L 16.796875 -3.4375 L 18.5625 -3.671875 L 13.0625 -11.9375 L 9.875 -11.9375 L 9.875 -4.015625 L 12.78125 -3.4375 L 12.78125 0 L 1.09375 0 Z M 1.09375 -3.4375 "/></g></g></g><g fill="#ffffff" fill-opacity="1"><g transform="translate(154.192258, 162.328399)"><g/></g></g><g fill="#ffffff" fill-opacity="1"><g transform="translate(164.040737, 162.328399)"><g><path d="M 0.796875 -3.4375 L 2.84375 -3.734375 L 11.53125 -28.578125 L 17.40625 -28.578125 L 26.046875 -3.734375 L 28.078125 -3.4375 L 28.078125 0 L 18.34375 0 L 18.34375 -3.4375 L 20.328125 -3.78125 L 19.078125 -7.71875 L 9.8125 -7.71875 L 8.5625 -3.78125 L 10.53125 -3.4375 L 10.53125 0 L 0.796875 0 Z M 11.171875 -11.9375 L 17.71875 -11.9375 L 14.5 -22 L 14.390625 -22 Z M 11.171875 -11.9375 "/></g></g></g><g fill="#ffffff" fill-opacity="1"><g transform="translate(192.899529, 162.328399)"><g/></g></g><g fill="#ffffff" fill-opacity="1"><g transform="translate(202.748009, 162.328399)"><g><path d="M 13.953125 -28.578125 C 17.441406 -28.578125 20.316406 -27.457031 22.578125 -25.21875 C 24.847656 -22.988281 25.984375 -20.128906 25.984375 -16.640625 L 25.984375 -11.90625 C 25.984375 -8.40625 24.847656 -5.546875 22.578125 -3.328125 C 20.316406 -1.109375 17.441406 0 13.953125 0 L 1.09375 0 L 1.09375 -3.4375 L 4.140625 -4.015625 L 4.140625 -24.53125 L 1.09375 -25.125 L 1.09375 -28.578125 Z M 9.875 -24.15625 L 9.875 -4.390625 L 13.65625 -4.390625 C 15.707031 -4.390625 17.316406 -5.082031 18.484375 -6.46875 C 19.648438 -7.863281 20.234375 -9.675781 20.234375 -11.90625 L 20.234375 -16.671875 C 20.234375 -18.890625 19.648438 -20.691406 18.484375 -22.078125 C 17.316406 -23.460938 15.707031 -24.15625 13.65625 -24.15625 Z M 9.875 -24.15625 "/></g></g></g><g fill="#ffffff" fill-opacity="1"><g transform="translate(230.429691, 162.328399)"><g><path d="M 0.796875 -3.4375 L 2.84375 -3.734375 L 11.53125 -28.578125 L 17.40625 -28.578125 L 26.046875 -3.734375 L 28.078125 -3.4375 L 28.078125 0 L 18.34375 0 L 18.34375 -3.4375 L 20.328125 -3.78125 L 19.078125 -7.71875 L 9.8125 -7.71875 L 8.5625 -3.78125 L 10.53125 -3.4375 L 10.53125 0 L 0.796875 0 Z M 11.171875 -11.9375 L 17.71875 -11.9375 L 14.5 -22 L 14.390625 -22 Z M 11.171875 -11.9375 "/></g></g></g><g fill="#ffffff" fill-opacity="1"><g transform="translate(259.288482, 162.328399)"><g><path d="M 26.25 -28.578125 L 26.25 -20.953125 L 21.859375 -20.953125 L 21.625 -24.15625 L 16.359375 -24.15625 L 16.359375 -4.015625 L 19.421875 -3.4375 L 19.421875 0 L 7.578125 0 L 7.578125 -3.4375 L 10.640625 -4.015625 L 10.640625 -24.15625 L 5.390625 -24.15625 L 5.15625 -20.953125 L 0.78125 -20.953125 L 0.78125 -28.578125 Z M 26.25 -28.578125 "/></g></g></g><g fill="#ffffff" fill-opacity="1"><g transform="translate(286.303136, 162.328399)"><g><path d="M 19.546875 -12.5625 L 9.875 -12.5625 L 9.875 -4.390625 L 19.09375 -4.390625 L 19.34375 -7.8125 L 23.703125 -7.8125 L 23.703125 0 L 1.09375 0 L 1.09375 -3.4375 L 4.140625 -4.015625 L 4.140625 -24.53125 L 1.09375 -25.125 L 1.09375 -28.578125 L 23.671875 -28.578125 L 23.671875 -20.734375 L 19.265625 -20.734375 L 19.015625 -24.15625 L 9.875 -24.15625 L 9.875 -16.96875 L 19.546875 -16.96875 Z M 19.546875 -12.5625 "/></g></g></g><g fill="#ffffff" fill-opacity="1"><g transform="translate(311.964115, 162.328399)"><g><path d="M 8.0625 -9.84375 L 2.328125 -9.84375 L 2.328125 -28.578125 L 8.0625 -28.578125 Z M 8.0625 0 L 2.328125 0 L 2.328125 -5.03125 L 8.0625 -5.03125 Z M 8.0625 0 "/></g></g></g></svg>